PathFileType	4	(X/Y/Z)	Patient4_TMGait_0pt7_02_left_04.trc.trc
DataRate	CameraRate	NumFrames	NumMarkers	Units	OrigDataRate	OrigDataStartFrame	OrigNumFrames
85.365853658537	85.365853658537	4	33	mm	85.365853658537	71	       141
Frame#	Time	Sacral			L.Shoulder			Chest			R.Shoulder			Neck			R.ASIS			L.ASIS			R.Thigh.Superior			R.Thigh.Lateral			R.Thigh.Inferior			R.Patella			L.Thigh.Superior			L.Thigh.Lateral			L.Thigh.Inferior			L.Patella			L.Shank.Superior			L.Shank.Lateral			L.Shank.Inferior			R.Shank.Superior			R.Shank.Lateral			R.Shank.Inferior			R.Heel			R.Midfoot.Superior			R.Midfoot.Lateral			R.Toe			L.Heel			L.Midfoot.Lateral			L.Midfoot.Superior			L.Toe			L.Elbow			L.Wrist			R.Elbow			R.Wrist			
		X1	Y1	Z1	X2	Y2	Z2	X3	Y3	Z3	X4	Y4	Z4	X5	Y5	Z5	X6	Y6	Z6	X7	Y7	Z7	X8	Y8	Z8	X9	Y9	Z9	X10	Y10	Z10	X11	Y11	Z11	X12	Y12	Z12	X13	Y13	Z13	X14	Y14	Z14	X15	Y15	Z15	X16	Y16	Z16	X17	Y17	Z17	X18	Y18	Z18	X19	Y19	Z19	X20	Y20	Z20	X21	Y21	Z21	X22	Y22	Z22	X23	Y23	Z23	X24	Y24	Z24	X25	Y25	Z25	X26	Y26	Z26	X27	Y27	Z27	X28	Y28	Z28	X29	Y29	Z29	X30	Y30	Z30	X31	Y31	Z31	X32	Y32	Z32	X33	Y33	Z33	

71	4.980000000000	826.443595719673	1020.745046439200	435.511151665463	1056.854979870075	1427.312702571305	248.646535573540	1145.891609932163	1346.124238685763	412.858399026171	1067.584414954653	1435.574713372375	581.162866542163	1058.831207411751	1487.506788590830	399.481257448750	1048.787841022228	939.147583578938	552.843008389945	1030.663302927695	955.052181776921	280.193502336835	1120.800027647425	780.687688122574	520.886079240167	1092.344229540862	660.621315003198	603.610365773948	1175.660205706478	622.303673132680	518.585685709849	1215.326509427018	537.096261070365	540.933581806637	1028.309821919861	732.660660348931	304.918413480184	904.638134705576	643.590003535714	249.587514190043	966.399779190438	547.381465037516	308.407145229051	950.408260717474	483.354019122404	318.712972235054	917.194343410079	418.148037401465	313.982351659000	811.340697161862	314.847117276057	272.405369472251	855.390265364658	198.727318440712	341.252251277640	1192.679431726279	447.827365275051	554.975187021262	1135.443055205033	340.173656713226	625.415865981673	1194.785419815597	247.820752744035	573.073905286091	1087.644779840460	66.817372116571	555.447884159825	1256.252327955217	128.842256417641	582.972864087987	1176.227563641264	58.141615606361	622.775948406987	1380.184661632885	84.245213866166	602.492309306669	714.386901774516	51.966538255611	391.935641856724	786.272615004312	41.780507265664	311.185522412088	873.374473196453	98.033061189230	333.366458826970	997.034618119482	38.072742240872	303.933940147511	1096.041956356850	1106.430490054086	91.686398655887	1344.296651534813	1088.685924107595	142.650631089000	888.117316033955	1148.906104358984	706.616422729152	828.217288547045	893.541690138523	714.688663680453	
72	4.991714285714	828.265980572409	1018.240794341125	437.398854348190	1057.175381332228	1425.510898434776	250.232566281219	1146.455996215081	1344.687095512645	414.448094158177	1067.809011670590	1433.841020535020	582.772054477087	1058.847754448219	1485.622224290107	401.097141623611	1050.789922944242	936.673872277647	554.144431446010	1031.420891996824	952.629495898163	282.235133649029	1120.686702680202	775.927852002439	522.039143458023	1090.408453227526	656.149137912897	604.880221385081	1172.849781190070	617.046602644906	519.294523470691	1211.688345557918	533.378987138014	541.144732113496	1027.080574148782	730.406037092544	306.600193440759	902.389226644646	642.784918259291	250.519872262217	962.436849996504	545.852915631823	309.724852837936	945.623797877840	481.928167338126	319.815254868636	911.908590868314	417.087483906486	314.830521044179	805.210504331876	314.744038289734	272.886145697721	847.977626379149	198.177909105341	341.651416042616	1191.695966076753	444.193815596041	555.165925595399	1137.327160376655	334.201835603092	624.387837277106	1200.221462928421	244.062606283046	571.754625832237	1099.067983661786	59.746253221612	551.950933753130	1265.943832704200	126.593129242448	581.208647848208	1187.403487040161	53.349353572574	619.809024057315	1390.964714089748	85.190464443846	601.173470784597	706.077342996596	51.873571036901	391.925292821268	777.999493559001	41.733249640448	311.204396946780	865.050369062539	97.957030625320	333.523373542153	988.720998368525	38.020370582149	303.957357901432	1096.821109981440	1104.893928252224	92.967039034252	1344.994154814576	1091.001439277106	144.485346754907	884.432110702379	1150.217605774289	707.629684697149	821.093998488729	895.724176793423	717.597559105221	
73	5.003428571429	830.250117675636	1015.605409017178	439.476500341212	1057.377009304393	1423.658057632981	251.989597727048	1147.031662146819	1343.261510299637	416.178104085216	1068.076130086047	1432.041756923480	584.588193573755	1058.831656936873	1483.720147900897	402.922980520070	1052.974751944696	934.139830158554	555.584378771413	1032.459138864787	950.145776560833	284.364505471024	1121.063492206984	771.332515694318	523.533987515668	1088.619337602787	651.624197521015	605.984336480701	1170.631654768970	612.060316205551	520.235616410667	1208.250252173950	529.418524443030	541.400529966041	1026.506342910473	728.207543465763	308.220251432389	900.886572876832	641.864717544459	251.548623737207	959.415812300546	544.263592110060	311.041586989119	941.822925669600	480.277441746583	320.963768481631	907.445122017861	415.823676727263	315.685774189972	799.661432697363	314.692972012537	273.353103954674	840.818911153935	197.591638175873	342.008681102106	1190.287860149291	440.217128333807	555.187287500045	1137.658716154451	328.478118917767	622.889394825845	1203.268922576357	240.154876003100	570.082394830347	1106.404433260663	54.071716256423	548.039874278616	1272.029781455431	123.882367471408	579.003859007587	1194.274844844834	49.167568915772	616.486564773484	1397.539693661569	84.417701041967	599.483573216512	697.754747949871	51.943425830657	391.840323985010	769.734946011828	41.711971932167	311.172200325828	856.784969143994	97.922719895485	333.592290190721	980.424233035900	37.966644967618	303.973547973363	1096.809572181438	1103.014197165799	94.549307443512	1344.908377746975	1092.039676430062	146.288703756458	881.916470219336	1150.623875938379	708.793256978173	815.684401190582	896.872835634306	720.463974203337	
74	5.015142857143	832.363710522484	1012.935846174931	441.722914395411	1057.486115675442	1421.809200540533	253.923035423511	1147.645138115215	1341.892556628174	418.051876094438	1068.423365213435	1430.234507895022	586.612467053753	1058.830756646414	1481.862556692288	404.961406442436	1055.310889279939	931.628587511124	557.175933503004	1033.844284625390	947.740497339240	286.525709170449	1121.970974690245	767.014592348973	525.398400062818	1086.964915173454	647.144943338654	606.845256288603	1169.074414402212	607.476301429038	521.398038910497	1205.114776540471	525.337111532567	541.635276679222	1026.628206326286	726.103183078670	309.736288970600	900.156287992515	640.838931741333	252.686603659373	957.436145840658	542.613481405116	312.306243479150	939.127107846713	478.378779148055	322.098907950619	903.880113310435	414.348249194497	316.521796269535	794.740052768844	314.728960202180	273.812745074011	833.951759083462	196.993804783522	342.306585549977	1188.563479657609	436.013718028473	554.992275400006	1136.627859969691	323.073519450571	621.015017538837	1204.084620137170	236.097236209105	568.111477152388	1109.742219878915	49.664010608001	543.981052403697	1274.679842154510	120.685183414672	576.423254758025	1197.032652943734	45.585777606636	613.045674432628	1400.194328470204	81.946972336254	597.487413833788	689.427241360718	52.241983542489	391.677812655675	761.479771381550	41.734893211432	311.087586171456	848.610150652988	97.934063239776	333.549685299575	972.150524942589	37.919285658332	303.982712367725	1096.005149415918	1100.829822279877	96.458495690680	1344.084513488610	1091.787537163684	148.073524996735	880.663711429498	1150.082679958552	710.147045251330	812.109422085363	896.937551275597	723.168512320363	
